<svg width="16" height="16" viewBox="0 0 16 16" fill="none" xmlns="http://www.w3.org/2000/svg">
<g id="Frame" clip-path="url(#clip0_2_1653)">
<g id="Group">
<g id="Group_2">
<path id="Vector" d="M7.99999 15.3333C8.16937 15.3331 8.33231 15.2684 8.45571 15.1523C8.46191 15.1464 8.46799 15.1403 8.47394 15.1341L13.2291 10.5755C13.2305 10.5742 13.2318 10.5729 13.2331 10.5716L13.2357 10.569C13.2982 10.5065 13.3333 10.4217 13.3333 10.3333C13.3333 10.1492 13.1841 9.99998 13 9.99998L9.99998 9.99998L9.99998 2.66664C9.99998 1.92998 9.40331 1.33331 8.66665 1.33331L7.99998 1.33331L7.33331 1.33331C6.59665 1.33331 5.99998 1.92997 5.99998 2.66664L5.99998 9.99998L2.99998 9.99998C2.81589 9.99998 2.66664 10.1492 2.66664 10.3333C2.66666 10.4217 2.70178 10.5065 2.7643 10.569L7.52211 15.1315C7.64762 15.2605 7.81998 15.3333 7.99999 15.3333Z" fill="white"/>
</g>
</g>
</g>
<defs>
<clipPath id="clip0_2_1653">
<rect width="16" height="16" fill="white" transform="translate(16 16) rotate(-180)"/>
</clipPath>
</defs>
</svg>
