<svg width="48" height="48" viewBox="0 0 48 48" fill="none" xmlns="http://www.w3.org/2000/svg">
<path d="M17.6 9.59999H9.59999C7.83519 9.59999 6.39999 11.0352 6.39999 12.8V20.8C6.39999 22.5648 7.83519 24 9.59999 24H17.6C19.3648 24 20.8 22.5648 20.8 20.8V12.8C20.8 11.0352 19.3648 9.59999 17.6 9.59999ZM40.7184 12.9376L35.0624 7.27999C33.816 6.03199 31.784 6.03199 30.5376 7.27999L24.8816 12.9376C23.6336 14.1856 23.6336 16.2144 24.8816 17.4624L30.5376 23.12C31.1616 23.744 31.9808 24.056 32.8 24.056C33.6192 24.056 34.4384 23.744 35.0624 23.12L40.7184 17.4624C41.9664 16.2144 41.9664 14.1856 40.7184 12.9376ZM17.6 27.2H9.59999C7.83519 27.2 6.39999 28.6352 6.39999 30.4V38.4C6.39999 40.1648 7.83519 41.6 9.59999 41.6H17.6C19.3648 41.6 20.8 40.1648 20.8 38.4V30.4C20.8 28.6352 19.3648 27.2 17.6 27.2ZM35.2 27.2H27.2C25.4352 27.2 24 28.6352 24 30.4V38.4C24 40.1648 25.4352 41.6 27.2 41.6H35.2C36.9648 41.6 38.4 40.1648 38.4 38.4V30.4C38.4 28.6352 36.9648 27.2 35.2 27.2Z" fill="white"/>
</svg>
