<svg width="40" height="40" viewBox="0 0 40 40" fill="none" xmlns="http://www.w3.org/2000/svg">
<path d="M39.7755 23.8523C38.9394 22.4983 38.0246 21.2059 37.0505 19.9996C38.0246 18.7933 38.9394 17.5009 39.7755 16.1469C39.9986 15.7869 40.0452 15.3638 39.9409 14.9761C39.3117 11.4496 37.4067 8.27079 34.5597 5.99365C34.5484 5.98134 34.5356 5.96904 34.5228 5.95673C34.2194 5.66747 33.7877 5.53053 33.3801 5.51053C31.7238 5.52284 30.0981 5.63362 28.5301 5.83671C27.9187 4.41504 27.2045 3.01337 26.4004 1.65324C26.2143 1.33936 25.9206 1.09934 25.5691 0.971632C21.979 -0.323877 18.0229 -0.323877 14.4328 0.971632C14.0813 1.09934 13.7876 1.33936 13.6015 1.65324C12.799 3.01183 12.0849 4.4135 11.4718 5.83671C9.90381 5.63362 8.27806 5.52284 6.62182 5.51053C6.617 5.51053 6.61379 5.51053 6.60898 5.51053C6.1885 5.51053 5.78407 5.6767 5.48395 5.9598C2.63207 8.22464 0.717444 11.3911 0.0722795 14.9068C-0.0593211 15.3115 -0.0127798 15.7638 0.224743 16.1485C1.06089 17.5025 1.97567 18.7949 2.94984 20.0012C1.97567 21.2074 1.06089 22.4999 0.224743 23.8538C0.00166422 24.2139 -0.0448773 24.637 0.0594402 25.0247C0.688555 28.5512 2.59195 31.7269 5.43741 34.004C5.45025 34.0179 5.4647 34.0317 5.47754 34.044C5.78086 34.3333 6.1901 34.5179 6.62182 34.4902C8.27967 34.4764 9.90541 34.3671 11.4702 34.1641C12.0816 35.5857 12.7958 36.9874 13.5999 38.3475C13.786 38.6614 14.0797 38.9014 14.4312 39.0291C16.2271 39.6769 18.1128 40 20.0001 40C21.8875 40 23.7732 39.6769 25.5691 39.0291C25.9206 38.9014 26.2143 38.6614 26.4004 38.3475C27.2029 36.9889 27.917 35.5857 28.5301 34.1641C30.0965 34.3671 31.7206 34.4764 33.3785 34.4902C33.8439 34.4949 34.2146 34.3271 34.5195 34.0394C37.3698 31.7761 39.2845 28.6112 39.9296 25.0955C40.058 24.6878 40.0131 24.2369 39.7755 23.8523ZM26.4181 19.9996C26.4181 23.3984 23.5437 26.1541 19.9985 26.1541C16.4533 26.1541 13.579 23.3984 13.579 19.9996C13.579 16.6008 16.4533 13.8452 19.9985 13.8452C23.5437 13.8452 26.4181 16.6008 26.4181 19.9996Z" fill="white"/>
</svg>
