<svg width="40" height="40" viewBox="0 0 40 40" fill="none" xmlns="http://www.w3.org/2000/svg">
<path d="M9.33333 5.33333C7.14003 5.33333 5.33333 7.14003 5.33333 9.33332V30.6666C5.33333 32.876 7.12399 34.6666 9.33333 34.6666H32C33.4733 34.6666 34.6667 33.4733 34.6667 32V13.3333C34.6667 11.86 33.4733 10.6667 32 10.6667H21.3333H9.33333C8.57995 10.6667 7.99999 10.0867 7.99999 9.33332C7.99999 8.57995 8.57995 7.99999 9.33333 7.99999H29.3333C29.8142 8.00679 30.2614 7.75415 30.5038 7.33883C30.7463 6.9235 30.7463 6.40982 30.5038 5.9945C30.2614 5.57917 29.8142 5.32654 29.3333 5.33334L9.33333 5.33333ZM29.3333 20C30.8067 20 32 21.1933 32 22.6667C32 24.14 30.8067 25.3333 29.3333 25.3333C27.86 25.3333 26.6667 24.14 26.6667 22.6667C26.6667 21.1933 27.86 20 29.3333 20Z" fill="white"/>
</svg>
