<svg width="16" height="16" viewBox="0 0 16 16" fill="none" xmlns="http://www.w3.org/2000/svg">
<g id="Frame">
<g id="Group">
<g id="Group_2">
<path id="Vector" d="M8 0.666687C7.83061 0.666927 7.66767 0.73164 7.54427 0.847674C7.53808 0.853634 7.532 0.859707 7.52605 0.8659L2.77084 5.4245C2.76953 5.42579 2.76823 5.42709 2.76693 5.4284L2.76433 5.43101C2.70181 5.49351 2.66669 5.57829 2.66667 5.66669C2.66667 5.85078 2.81591 6.00002 3.00001 6.00002H6.00001V13.3334C6.00001 14.07 6.59667 14.6667 7.33334 14.6667H8.00001H8.66667C9.40334 14.6667 10 14.07 10 13.3334V6.00002H13C13.1841 6.00002 13.3333 5.85078 13.3333 5.66669C13.3333 5.57829 13.2982 5.49352 13.2357 5.43101L8.47787 0.868507C8.35237 0.73948 8.18001 0.666687 8 0.666687Z" fill="white"/>
</g>
</g>
</g>
</svg>
