<svg width="56" height="56" viewBox="0 0 56 56" fill="none" xmlns="http://www.w3.org/2000/svg">
<g id="Frame">
<g id="Group">
<g id="Group_2">
<path id="Vector" d="M44.3333 7H11.6667C9.08833 7 7 9.08833 7 11.6667V44.3333C7 46.9117 9.08833 49 11.6667 49H44.3333C46.9117 49 49 46.9117 49 44.3333V11.6667C49 9.08833 46.9117 7 44.3333 7ZM45.983 29.6497L38.283 37.3497C37.828 37.8047 37.2307 38.0333 36.6333 38.0333C36.036 38.0333 35.4387 37.8047 34.9837 37.3497C34.0713 36.4373 34.0713 34.9627 34.9837 34.0503L38.7007 30.3333H21C19.7097 30.3333 18.6667 29.2903 18.6667 28C18.6667 26.7097 19.7097 25.6667 21 25.6667H38.7007L34.9837 21.9497C34.0713 21.0373 34.0713 19.5627 34.9837 18.6503C35.896 17.738 37.3707 17.738 38.283 18.6503L45.983 26.3503C46.8954 27.2627 46.8954 28.7373 45.983 29.6497Z" fill="#AEAEAE"/>
</g>
</g>
</g>
</svg>
