<svg width="256" height="256" viewBox="0 0 256 256" fill="none" xmlns="http://www.w3.org/2000/svg">
<path d="M42.6667 32C36.7787 32 32 36.7787 32 42.6667V85.3334C32 91.2214 36.7787 96 42.6667 96H85.3334C91.2214 96 96 91.2214 96 85.3334V42.6667C96 36.7787 91.2214 32 85.3334 32H42.6667ZM117.333 32V53.3333H138.667V32H117.333ZM170.667 32C164.779 32 160 36.7787 160 42.6667V85.3334C160 91.2214 164.779 96 170.667 96H213.333C219.221 96 224 91.2214 224 85.3334V42.6667C224 36.7787 219.221 32 213.333 32H170.667ZM53.3333 53.3333H74.6667V74.6667H53.3333V53.3333ZM181.333 53.3333H202.667V74.6667H181.333V53.3333ZM117.333 74.6667V96H138.667V74.6667H117.333ZM32 117.333V138.667H53.3333V117.333H32ZM74.6667 117.333V138.667H96V117.333H74.6667ZM117.333 117.333V138.667H138.667V117.333H117.333ZM138.667 138.667V160H160V138.667H138.667ZM160 138.667H181.333V117.333H160V138.667ZM181.333 138.667V160H202.667V138.667H181.333ZM202.667 138.667H224V117.333H202.667V138.667ZM202.667 160V181.333H224V160H202.667ZM202.667 181.333H181.333V202.667H202.667V181.333ZM202.667 202.667V224H224V202.667H202.667ZM181.333 202.667H160V224H181.333V202.667ZM160 202.667V181.333H138.667V202.667H160ZM138.667 202.667H117.333V224H138.667V202.667ZM138.667 181.333V160H117.333V181.333H138.667ZM160 181.333H181.333V160H160V181.333ZM42.6667 160C36.7787 160 32 164.779 32 170.667V213.333C32 219.221 36.7787 224 42.6667 224H85.3334C91.2214 224 96 219.221 96 213.333V170.667C96 164.779 91.2214 160 85.3334 160H42.6667ZM53.3333 181.333H74.6667V202.667H53.3333V181.333Z" fill="white"/>
</svg>
